<mxfile host="app.diagrams.net" agent="Mozilla/5.0 (Macintosh; Intel Mac OS X 10.15; rv:134.0) Gecko/20100101 Firefox/134.0" version="26.0.10">
  <diagram name="Page-1" id="97TUoN2fane45SlfonPO">
    <mxGraphModel dx="954" dy="618" grid="1" gridSize="10" guides="1" tooltips="1" connect="1" arrows="1" fold="1" page="1" pageScale="1" pageWidth="1169" pageHeight="827" math="0" shadow="0">
      <root>
        <mxCell id="0" />
        <mxCell id="1" parent="0" />
        <mxCell id="AHxggCeNsx8ZMzd6Cx2u-3" value="Gopher" style="rounded=1;whiteSpace=wrap;html=1;verticalAlign=top;fillColor=none;fontFamily=JetBrains Mono;fontSource=https%3A%2F%2Ffonts.googleapis.com%2Fcss%3Ffamily%3DJetBrains%2BMono;strokeColor=#CCCCCC;strokeWidth=3;fontSize=14;fontStyle=1;labelBackgroundColor=#CCCCCC;arcSize=11;" parent="1" vertex="1">
          <mxGeometry x="360" y="40" width="680" height="500" as="geometry" />
        </mxCell>
        <mxCell id="AHxggCeNsx8ZMzd6Cx2u-2" value="Nerve Controller" style="rounded=1;whiteSpace=wrap;html=1;verticalAlign=top;fillColor=none;fontFamily=JetBrains Mono;fontSource=https%3A%2F%2Ffonts.googleapis.com%2Fcss%3Ffamily%3DJetBrains%2BMono;strokeWidth=3;strokeColor=#CCCCCC;fontSize=14;fontStyle=1;labelBackgroundColor=#CCCCCC;" parent="1" vertex="1">
          <mxGeometry x="40" y="40" width="160" height="100" as="geometry" />
        </mxCell>
        <mxCell id="AHxggCeNsx8ZMzd6Cx2u-17" style="edgeStyle=orthogonalEdgeStyle;rounded=1;orthogonalLoop=1;jettySize=auto;html=1;exitX=0.5;exitY=1;exitDx=0;exitDy=0;entryX=0.5;entryY=0;entryDx=0;entryDy=0;strokeWidth=2;strokeColor=#FFAB2E;curved=0;" parent="1" source="AHxggCeNsx8ZMzd6Cx2u-4" target="AHxggCeNsx8ZMzd6Cx2u-7" edge="1">
          <mxGeometry relative="1" as="geometry" />
        </mxCell>
        <mxCell id="AHxggCeNsx8ZMzd6Cx2u-18" value="asammdf" style="edgeLabel;html=1;align=center;verticalAlign=middle;resizable=0;points=[];fontSize=12;fontFamily=JetBrains Mono;fontSource=https%3A%2F%2Ffonts.googleapis.com%2Fcss%3Ffamily%3DJetBrains%2BMono;labelBorderColor=#FFAB2E;labelBackgroundColor=#FFAB2E;" parent="AHxggCeNsx8ZMzd6Cx2u-17" vertex="1" connectable="0">
          <mxGeometry x="-0.0571" y="2" relative="1" as="geometry">
            <mxPoint x="1" y="-2" as="offset" />
          </mxGeometry>
        </mxCell>
        <mxCell id="AHxggCeNsx8ZMzd6Cx2u-26" style="edgeStyle=orthogonalEdgeStyle;rounded=1;orthogonalLoop=1;jettySize=auto;html=1;exitX=0;exitY=0.5;exitDx=0;exitDy=0;entryX=0;entryY=0.5;entryDx=0;entryDy=0;strokeWidth=2;strokeColor=#FFAB2E;curved=0;" parent="1" source="AHxggCeNsx8ZMzd6Cx2u-4" target="AHxggCeNsx8ZMzd6Cx2u-9" edge="1">
          <mxGeometry relative="1" as="geometry">
            <Array as="points">
              <mxPoint x="420" y="360" />
              <mxPoint x="420" y="240" />
            </Array>
          </mxGeometry>
        </mxCell>
        <mxCell id="AHxggCeNsx8ZMzd6Cx2u-27" value="&lt;div&gt;&lt;font&gt;Internal Closed&lt;/font&gt;&lt;/div&gt;&lt;div&gt;&lt;font&gt;Loop Testing&lt;/font&gt;&lt;/div&gt;" style="edgeLabel;html=1;align=center;verticalAlign=middle;resizable=0;points=[];fontSize=12;fontFamily=JetBrains Mono;fontSource=https%3A%2F%2Ffonts.googleapis.com%2Fcss%3Ffamily%3DJetBrains%2BMono;labelBorderColor=#FFAB2E;labelBackgroundColor=#FFAB2E;" parent="AHxggCeNsx8ZMzd6Cx2u-26" vertex="1" connectable="0">
          <mxGeometry x="0.4116" y="-1" relative="1" as="geometry">
            <mxPoint x="16" y="-1" as="offset" />
          </mxGeometry>
        </mxCell>
        <mxCell id="AHxggCeNsx8ZMzd6Cx2u-28" style="edgeStyle=orthogonalEdgeStyle;rounded=1;orthogonalLoop=1;jettySize=auto;html=1;exitX=0;exitY=0.5;exitDx=0;exitDy=0;entryX=0;entryY=0.75;entryDx=0;entryDy=0;strokeWidth=2;strokeColor=#FFAB2E;curved=0;" parent="1" source="AHxggCeNsx8ZMzd6Cx2u-4" target="AHxggCeNsx8ZMzd6Cx2u-12" edge="1">
          <mxGeometry relative="1" as="geometry">
            <mxPoint x="600" y="134.9999999999999" as="targetPoint" />
            <Array as="points">
              <mxPoint x="420" y="360" />
              <mxPoint x="420" y="115" />
            </Array>
          </mxGeometry>
        </mxCell>
        <mxCell id="AHxggCeNsx8ZMzd6Cx2u-29" value="&lt;div&gt;&lt;font style=&quot;font-size: 12px;&quot; face=&quot;JetBrains Mono&quot; data-font-src=&quot;https://fonts.googleapis.com/css?family=JetBrains+Mono&quot;&gt;External&amp;nbsp;&lt;/font&gt;&lt;/div&gt;&lt;div&gt;&lt;font style=&quot;font-size: 12px;&quot; face=&quot;JetBrains Mono&quot; data-font-src=&quot;https://fonts.googleapis.com/css?family=JetBrains+Mono&quot;&gt;Closed&lt;/font&gt;&lt;/div&gt;&lt;div&gt;&lt;font style=&quot;font-size: 12px;&quot; face=&quot;JetBrains Mono&quot; data-font-src=&quot;https://fonts.googleapis.com/css?family=JetBrains+Mono&quot;&gt;Loop&amp;nbsp;&lt;/font&gt;&lt;/div&gt;&lt;div&gt;&lt;font style=&quot;font-size: 12px;&quot; face=&quot;JetBrains Mono&quot; data-font-src=&quot;https://fonts.googleapis.com/css?family=JetBrains+Mono&quot;&gt;Testing&lt;/font&gt;&lt;/div&gt;" style="edgeLabel;html=1;align=center;verticalAlign=middle;resizable=0;points=[];labelBorderColor=#FFAB2E;labelBackgroundColor=#FFAB2E;" parent="AHxggCeNsx8ZMzd6Cx2u-28" vertex="1" connectable="0">
          <mxGeometry x="-0.0142" relative="1" as="geometry">
            <mxPoint y="-1" as="offset" />
          </mxGeometry>
        </mxCell>
        <mxCell id="AHxggCeNsx8ZMzd6Cx2u-4" value="XBee message database" style="rounded=0;whiteSpace=wrap;html=1;fontFamily=JetBrains Mono;fontSource=https%3A%2F%2Ffonts.googleapis.com%2Fcss%3Ffamily%3DJetBrains%2BMono;fillColor=#cdeb8b;strokeColor=#36393d;" parent="1" vertex="1">
          <mxGeometry x="480" y="330" width="120" height="60" as="geometry" />
        </mxCell>
        <mxCell id="AHxggCeNsx8ZMzd6Cx2u-38" style="edgeStyle=orthogonalEdgeStyle;rounded=1;orthogonalLoop=1;jettySize=auto;html=1;exitX=0.25;exitY=1;exitDx=0;exitDy=0;entryX=0.5;entryY=0;entryDx=0;entryDy=0;strokeWidth=2;strokeColor=#FFAB2E;curved=0;" parent="1" source="AHxggCeNsx8ZMzd6Cx2u-5" target="AHxggCeNsx8ZMzd6Cx2u-36" edge="1">
          <mxGeometry relative="1" as="geometry" />
        </mxCell>
        <mxCell id="AHxggCeNsx8ZMzd6Cx2u-39" style="edgeStyle=orthogonalEdgeStyle;rounded=1;orthogonalLoop=1;jettySize=auto;html=1;exitX=0.75;exitY=1;exitDx=0;exitDy=0;entryX=0.5;entryY=0;entryDx=0;entryDy=0;strokeWidth=2;strokeColor=#FFAB2E;curved=0;" parent="1" source="AHxggCeNsx8ZMzd6Cx2u-5" target="AHxggCeNsx8ZMzd6Cx2u-37" edge="1">
          <mxGeometry relative="1" as="geometry" />
        </mxCell>
        <mxCell id="AHxggCeNsx8ZMzd6Cx2u-5" value="Gopher GUI App" style="rounded=0;whiteSpace=wrap;html=1;fontFamily=JetBrains Mono;fontSource=https%3A%2F%2Ffonts.googleapis.com%2Fcss%3Ffamily%3DJetBrains%2BMono;fillColor=#ffcc99;strokeColor=#36393d;" parent="1" vertex="1">
          <mxGeometry x="760" y="330" width="120" height="60" as="geometry" />
        </mxCell>
        <mxCell id="AHxggCeNsx8ZMzd6Cx2u-20" style="edgeStyle=orthogonalEdgeStyle;rounded=1;orthogonalLoop=1;jettySize=auto;html=1;exitX=0.5;exitY=1;exitDx=0;exitDy=0;entryX=0.5;entryY=0;entryDx=0;entryDy=0;strokeWidth=2;strokeColor=#FFAB2E;dashed=1;curved=0;" parent="1" source="AHxggCeNsx8ZMzd6Cx2u-7" target="AHxggCeNsx8ZMzd6Cx2u-21" edge="1">
          <mxGeometry relative="1" as="geometry">
            <mxPoint x="460" y="620" as="targetPoint" />
          </mxGeometry>
        </mxCell>
        <mxCell id="AHxggCeNsx8ZMzd6Cx2u-7" value="&lt;div&gt;Scientific and measurement data&lt;/div&gt;&lt;div&gt;(MDF)&lt;br&gt;&lt;/div&gt;" style="rounded=0;whiteSpace=wrap;html=1;fontFamily=JetBrains Mono;fontSource=https%3A%2F%2Ffonts.googleapis.com%2Fcss%3Ffamily%3DJetBrains%2BMono;fillColor=#cdeb8b;strokeColor=#36393d;" parent="1" vertex="1">
          <mxGeometry x="480" y="450" width="120" height="60" as="geometry" />
        </mxCell>
        <mxCell id="AHxggCeNsx8ZMzd6Cx2u-19" style="edgeStyle=orthogonalEdgeStyle;rounded=1;orthogonalLoop=1;jettySize=auto;html=1;exitX=0.5;exitY=1;exitDx=0;exitDy=0;entryX=0.5;entryY=0;entryDx=0;entryDy=0;strokeWidth=2;strokeColor=#FFAB2E;curved=0;" parent="1" source="AHxggCeNsx8ZMzd6Cx2u-9" target="AHxggCeNsx8ZMzd6Cx2u-4" edge="1">
          <mxGeometry relative="1" as="geometry" />
        </mxCell>
        <mxCell id="AHxggCeNsx8ZMzd6Cx2u-31" value="SQL" style="edgeLabel;html=1;align=center;verticalAlign=middle;resizable=0;points=[];fontSize=12;fontFamily=JetBrains Mono;fontSource=https%3A%2F%2Ffonts.googleapis.com%2Fcss%3Ffamily%3DJetBrains%2BMono;labelBorderColor=#FFAB2E;labelBackgroundColor=#FFAB2E;" parent="AHxggCeNsx8ZMzd6Cx2u-19" vertex="1" connectable="0">
          <mxGeometry x="0.0099" y="2" relative="1" as="geometry">
            <mxPoint y="-2" as="offset" />
          </mxGeometry>
        </mxCell>
        <mxCell id="AHxggCeNsx8ZMzd6Cx2u-30" style="edgeStyle=orthogonalEdgeStyle;rounded=1;orthogonalLoop=1;jettySize=auto;html=1;exitX=0.5;exitY=1;exitDx=0;exitDy=0;entryX=0.5;entryY=0;entryDx=0;entryDy=0;strokeWidth=2;strokeColor=#FFAB2E;curved=0;" parent="1" source="AHxggCeNsx8ZMzd6Cx2u-9" target="AHxggCeNsx8ZMzd6Cx2u-5" edge="1">
          <mxGeometry relative="1" as="geometry" />
        </mxCell>
        <mxCell id="AHxggCeNsx8ZMzd6Cx2u-33" value="PySide" style="edgeLabel;html=1;align=center;verticalAlign=middle;resizable=0;points=[];fontSize=12;fontFamily=JetBrains Mono;fontSource=https%3A%2F%2Ffonts.googleapis.com%2Fcss%3Ffamily%3DJetBrains%2BMono;labelBorderColor=#FFAB2E;labelBackgroundColor=#FFAB2E;" parent="AHxggCeNsx8ZMzd6Cx2u-30" vertex="1" connectable="0">
          <mxGeometry x="-0.0088" y="-2" relative="1" as="geometry">
            <mxPoint as="offset" />
          </mxGeometry>
        </mxCell>
        <mxCell id="AHxggCeNsx8ZMzd6Cx2u-9" value="FIFO Message Buffer" style="rounded=0;whiteSpace=wrap;html=1;fontFamily=JetBrains Mono;fontSource=https%3A%2F%2Ffonts.googleapis.com%2Fcss%3Ffamily%3DJetBrains%2BMono;fillColor=#eeeeee;strokeColor=#36393d;" parent="1" vertex="1">
          <mxGeometry x="600" y="210" width="120" height="60" as="geometry" />
        </mxCell>
        <mxCell id="AHxggCeNsx8ZMzd6Cx2u-14" style="edgeStyle=orthogonalEdgeStyle;rounded=1;orthogonalLoop=1;jettySize=auto;html=1;strokeWidth=2;strokeColor=#FFAB2E;curved=0;exitX=0.5;exitY=1;exitDx=0;exitDy=0;" parent="1" source="AHxggCeNsx8ZMzd6Cx2u-12" target="AHxggCeNsx8ZMzd6Cx2u-9" edge="1">
          <mxGeometry relative="1" as="geometry">
            <mxPoint x="660" y="150" as="sourcePoint" />
          </mxGeometry>
        </mxCell>
        <mxCell id="AHxggCeNsx8ZMzd6Cx2u-15" value="XBee API" style="edgeLabel;html=1;align=center;verticalAlign=middle;resizable=0;points=[];fontSize=12;fontFamily=JetBrains Mono;fontSource=https%3A%2F%2Ffonts.googleapis.com%2Fcss%3Ffamily%3DJetBrains%2BMono;labelBorderColor=#FFAB2E;labelBackgroundColor=#FFAB2E;" parent="AHxggCeNsx8ZMzd6Cx2u-14" vertex="1" connectable="0">
          <mxGeometry x="-0.1333" y="1" relative="1" as="geometry">
            <mxPoint as="offset" />
          </mxGeometry>
        </mxCell>
        <mxCell id="AHxggCeNsx8ZMzd6Cx2u-12" value="XBee-PRO 900HP Radio" style="rounded=0;whiteSpace=wrap;html=1;fillColor=#cce5ff;strokeColor=#36393d;fontFamily=JetBrains Mono;fontSource=https%3A%2F%2Ffonts.googleapis.com%2Fcss%3Ffamily%3DJetBrains%2BMono;" parent="1" vertex="1">
          <mxGeometry x="600" y="70" width="120" height="60" as="geometry" />
        </mxCell>
        <mxCell id="AHxggCeNsx8ZMzd6Cx2u-24" style="edgeStyle=orthogonalEdgeStyle;rounded=1;orthogonalLoop=1;jettySize=auto;html=1;exitX=1;exitY=0.5;exitDx=0;exitDy=0;entryX=0;entryY=0.5;entryDx=0;entryDy=0;strokeWidth=3;strokeColor=#9999FF;startArrow=classic;startFill=1;curved=0;dashed=1;" parent="1" source="AHxggCeNsx8ZMzd6Cx2u-13" target="AHxggCeNsx8ZMzd6Cx2u-12" edge="1">
          <mxGeometry relative="1" as="geometry" />
        </mxCell>
        <mxCell id="AHxggCeNsx8ZMzd6Cx2u-47" value="&lt;div&gt;XBee Mesh&lt;/div&gt;&lt;div&gt;Network&lt;/div&gt;" style="edgeLabel;html=1;align=center;verticalAlign=middle;resizable=0;points=[];fontSize=12;fontFamily=JetBrains Mono;fontSource=https%3A%2F%2Ffonts.googleapis.com%2Fcss%3Ffamily%3DJetBrains%2BMono;labelBackgroundColor=#9999FF;labelBorderColor=#9999FF;" parent="AHxggCeNsx8ZMzd6Cx2u-24" vertex="1" connectable="0">
          <mxGeometry x="-0.5159" y="-3" relative="1" as="geometry">
            <mxPoint y="-3" as="offset" />
          </mxGeometry>
        </mxCell>
        <mxCell id="AHxggCeNsx8ZMzd6Cx2u-13" value="XBee-PRO 900HP Radio" style="rounded=0;whiteSpace=wrap;html=1;fillColor=#cce5ff;strokeColor=#36393d;fontFamily=JetBrains Mono;fontSource=https%3A%2F%2Ffonts.googleapis.com%2Fcss%3Ffamily%3DJetBrains%2BMono;" parent="1" vertex="1">
          <mxGeometry x="60" y="70" width="120" height="60" as="geometry" />
        </mxCell>
        <mxCell id="AHxggCeNsx8ZMzd6Cx2u-21" value="Post flight analysis" style="ellipse;whiteSpace=wrap;html=1;fontFamily=JetBrains Mono;fontSource=https%3A%2F%2Ffonts.googleapis.com%2Fcss%3Ffamily%3DJetBrains%2BMono;fillColor=#fff2cc;strokeColor=#d6b656;gradientColor=#ffd966;" parent="1" vertex="1">
          <mxGeometry x="480" y="570" width="120" height="60" as="geometry" />
        </mxCell>
        <mxCell id="AHxggCeNsx8ZMzd6Cx2u-34" value="Data Display" style="ellipse;whiteSpace=wrap;html=1;fontFamily=JetBrains Mono;fontSource=https%3A%2F%2Ffonts.googleapis.com%2Fcss%3Ffamily%3DJetBrains%2BMono;fillColor=#fff2cc;strokeColor=#d6b656;gradientColor=#ffd966;" parent="1" vertex="1">
          <mxGeometry x="670" y="570" width="120" height="60" as="geometry" />
        </mxCell>
        <mxCell id="AHxggCeNsx8ZMzd6Cx2u-40" style="edgeStyle=orthogonalEdgeStyle;rounded=1;orthogonalLoop=1;jettySize=auto;html=1;exitX=0.5;exitY=1;exitDx=0;exitDy=0;entryX=0.5;entryY=0;entryDx=0;entryDy=0;dashed=1;strokeWidth=2;strokeColor=#FFAB2E;curved=0;" parent="1" source="AHxggCeNsx8ZMzd6Cx2u-36" target="AHxggCeNsx8ZMzd6Cx2u-34" edge="1">
          <mxGeometry relative="1" as="geometry" />
        </mxCell>
        <mxCell id="AHxggCeNsx8ZMzd6Cx2u-36" value="Read Only Displays" style="rounded=0;whiteSpace=wrap;html=1;fontFamily=JetBrains Mono;fontSource=https%3A%2F%2Ffonts.googleapis.com%2Fcss%3Ffamily%3DJetBrains%2BMono;fillColor=#ffcc99;strokeColor=#36393d;" parent="1" vertex="1">
          <mxGeometry x="670" y="450" width="120" height="60" as="geometry" />
        </mxCell>
        <mxCell id="AHxggCeNsx8ZMzd6Cx2u-42" style="edgeStyle=orthogonalEdgeStyle;rounded=1;orthogonalLoop=1;jettySize=auto;html=1;exitX=0.5;exitY=1;exitDx=0;exitDy=0;entryX=0.5;entryY=0;entryDx=0;entryDy=0;dashed=1;strokeWidth=2;strokeColor=#FFAB2E;curved=0;" parent="1" source="AHxggCeNsx8ZMzd6Cx2u-37" target="AHxggCeNsx8ZMzd6Cx2u-41" edge="1">
          <mxGeometry relative="1" as="geometry" />
        </mxCell>
        <mxCell id="AHxggCeNsx8ZMzd6Cx2u-46" style="edgeStyle=orthogonalEdgeStyle;rounded=1;orthogonalLoop=1;jettySize=auto;html=1;exitX=1;exitY=0.5;exitDx=0;exitDy=0;entryX=1;entryY=0.5;entryDx=0;entryDy=0;strokeWidth=2;strokeColor=#FFAB2E;curved=0;" parent="1" source="AHxggCeNsx8ZMzd6Cx2u-37" target="AHxggCeNsx8ZMzd6Cx2u-43" edge="1">
          <mxGeometry relative="1" as="geometry" />
        </mxCell>
        <mxCell id="AHxggCeNsx8ZMzd6Cx2u-37" value="Transmit Control Displays" style="rounded=0;whiteSpace=wrap;html=1;fontFamily=JetBrains Mono;fontSource=https%3A%2F%2Ffonts.googleapis.com%2Fcss%3Ffamily%3DJetBrains%2BMono;fillColor=#ffcc99;strokeColor=#36393d;" parent="1" vertex="1">
          <mxGeometry x="850" y="450" width="120" height="60" as="geometry" />
        </mxCell>
        <mxCell id="AHxggCeNsx8ZMzd6Cx2u-41" value="Mission Control" style="ellipse;whiteSpace=wrap;html=1;fontFamily=JetBrains Mono;fontSource=https%3A%2F%2Ffonts.googleapis.com%2Fcss%3Ffamily%3DJetBrains%2BMono;fillColor=#fff2cc;strokeColor=#d6b656;shadow=0;gradientColor=#ffd966;" parent="1" vertex="1">
          <mxGeometry x="850" y="570" width="120" height="60" as="geometry" />
        </mxCell>
        <mxCell id="AHxggCeNsx8ZMzd6Cx2u-44" style="edgeStyle=orthogonalEdgeStyle;rounded=1;orthogonalLoop=1;jettySize=auto;html=1;exitX=0.5;exitY=0;exitDx=0;exitDy=0;entryX=1;entryY=0.5;entryDx=0;entryDy=0;strokeWidth=2;strokeColor=#FFAB2E;curved=0;" parent="1" source="AHxggCeNsx8ZMzd6Cx2u-43" target="AHxggCeNsx8ZMzd6Cx2u-12" edge="1">
          <mxGeometry relative="1" as="geometry">
            <mxPoint x="720" y="119.99999999999989" as="targetPoint" />
          </mxGeometry>
        </mxCell>
        <mxCell id="AHxggCeNsx8ZMzd6Cx2u-45" value="XBee API" style="edgeLabel;html=1;align=center;verticalAlign=middle;resizable=0;points=[];labelBorderColor=#FFAB2E;labelBackgroundColor=#FFAB2E;fontSize=12;fontFamily=JetBrains Mono;fontSource=https%3A%2F%2Ffonts.googleapis.com%2Fcss%3Ffamily%3DJetBrains%2BMono;" parent="AHxggCeNsx8ZMzd6Cx2u-44" vertex="1" connectable="0">
          <mxGeometry x="-0.7899" y="-1" relative="1" as="geometry">
            <mxPoint as="offset" />
          </mxGeometry>
        </mxCell>
        <mxCell id="AHxggCeNsx8ZMzd6Cx2u-43" value="FIFO Outbound Command Buffer" style="rounded=0;whiteSpace=wrap;html=1;fontFamily=JetBrains Mono;fontSource=https%3A%2F%2Ffonts.googleapis.com%2Fcss%3Ffamily%3DJetBrains%2BMono;fillColor=#eeeeee;strokeColor=#36393d;" parent="1" vertex="1">
          <mxGeometry x="860" y="210" width="120" height="60" as="geometry" />
        </mxCell>
      </root>
    </mxGraphModel>
  </diagram>
</mxfile>
